<mxfile host="app.diagrams.net" agent="Mozilla/5.0 (Windows NT 10.0; Win64; x64) AppleWebKit/537.36 (KHTML, like Gecko) Chrome/121.0.0.0 Safari/537.36 Edg/121.0.0.0" version="24.7.6">
  <diagram name="PÃ¡gina-1" id="Hg2ADHbcAfVCB5c0dppT">
    <mxGraphModel dx="2213" dy="793" grid="1" gridSize="10" guides="1" tooltips="1" connect="1" arrows="1" fold="1" page="1" pageScale="1" pageWidth="827" pageHeight="1169" math="0" shadow="0">
      <root>
        <mxCell id="0" />
        <mxCell id="1" parent="0" />
        <mxCell id="F62fE3NJksiHlh27fMDJ-1" value="ALUMNO" style="rounded=1;arcSize=10;whiteSpace=wrap;html=1;align=center;" vertex="1" parent="1">
          <mxGeometry x="40" y="120" width="100" height="40" as="geometry" />
        </mxCell>
        <mxCell id="F62fE3NJksiHlh27fMDJ-2" value="ID" style="ellipse;whiteSpace=wrap;html=1;align=center;fontStyle=4;" vertex="1" parent="1">
          <mxGeometry x="-60" y="40" width="60" height="40" as="geometry" />
        </mxCell>
        <mxCell id="F62fE3NJksiHlh27fMDJ-3" value="fkcod" style="ellipse;whiteSpace=wrap;html=1;align=center;" vertex="1" parent="1">
          <mxGeometry x="50" y="40" width="60" height="40" as="geometry" />
        </mxCell>
        <mxCell id="F62fE3NJksiHlh27fMDJ-4" value="nombres" style="ellipse;whiteSpace=wrap;html=1;align=center;" vertex="1" parent="1">
          <mxGeometry x="-60" y="200" width="60" height="40" as="geometry" />
        </mxCell>
        <mxCell id="F62fE3NJksiHlh27fMDJ-6" value="CARRERA" style="rounded=1;arcSize=10;whiteSpace=wrap;html=1;align=center;" vertex="1" parent="1">
          <mxGeometry x="520" y="120" width="100" height="40" as="geometry" />
        </mxCell>
        <mxCell id="F62fE3NJksiHlh27fMDJ-8" value="MATERIA" style="whiteSpace=wrap;html=1;align=center;" vertex="1" parent="1">
          <mxGeometry x="960" y="120" width="100" height="40" as="geometry" />
        </mxCell>
        <mxCell id="F62fE3NJksiHlh27fMDJ-9" value="TIENE" style="shape=associativeEntity;whiteSpace=wrap;html=1;align=center;" vertex="1" parent="1">
          <mxGeometry x="710" y="110" width="140" height="60" as="geometry" />
        </mxCell>
        <mxCell id="F62fE3NJksiHlh27fMDJ-10" value="IMPARTE" style="shape=associativeEntity;whiteSpace=wrap;html=1;align=center;" vertex="1" parent="1">
          <mxGeometry x="1220" y="110" width="140" height="60" as="geometry" />
        </mxCell>
        <mxCell id="F62fE3NJksiHlh27fMDJ-11" value="PROFESOR" style="whiteSpace=wrap;html=1;align=center;" vertex="1" parent="1">
          <mxGeometry x="1670" y="120" width="100" height="40" as="geometry" />
        </mxCell>
        <mxCell id="F62fE3NJksiHlh27fMDJ-12" value="direccion" style="ellipse;shape=doubleEllipse;margin=3;whiteSpace=wrap;html=1;align=center;" vertex="1" parent="1">
          <mxGeometry x="40" y="200" width="70" height="40" as="geometry" />
        </mxCell>
        <mxCell id="F62fE3NJksiHlh27fMDJ-13" value="edad" style="ellipse;whiteSpace=wrap;html=1;align=center;dashed=1;" vertex="1" parent="1">
          <mxGeometry x="140" y="40" width="50" height="40" as="geometry" />
        </mxCell>
        <mxCell id="F62fE3NJksiHlh27fMDJ-14" value="barrio" style="ellipse;whiteSpace=wrap;html=1;align=center;" vertex="1" parent="1">
          <mxGeometry x="90" y="280" width="60" height="40" as="geometry" />
        </mxCell>
        <mxCell id="F62fE3NJksiHlh27fMDJ-15" value="calle" style="ellipse;whiteSpace=wrap;html=1;align=center;" vertex="1" parent="1">
          <mxGeometry y="280" width="50" height="40" as="geometry" />
        </mxCell>
        <mxCell id="F62fE3NJksiHlh27fMDJ-16" value="telefono" style="ellipse;shape=doubleEllipse;margin=3;whiteSpace=wrap;html=1;align=center;" vertex="1" parent="1">
          <mxGeometry x="132.5" y="200" width="65" height="40" as="geometry" />
        </mxCell>
        <mxCell id="F62fE3NJksiHlh27fMDJ-17" value="cod_ca" style="ellipse;whiteSpace=wrap;html=1;align=center;fontStyle=4;" vertex="1" parent="1">
          <mxGeometry x="520" y="40" width="100" height="40" as="geometry" />
        </mxCell>
        <mxCell id="F62fE3NJksiHlh27fMDJ-18" value="cod_ca,cod_ma" style="ellipse;whiteSpace=wrap;html=1;align=center;fontStyle=4;" vertex="1" parent="1">
          <mxGeometry x="732" y="40" width="100" height="40" as="geometry" />
        </mxCell>
        <mxCell id="F62fE3NJksiHlh27fMDJ-19" value="fk_cod_ma" style="ellipse;whiteSpace=wrap;html=1;align=center;" vertex="1" parent="1">
          <mxGeometry x="800" y="200" width="70" height="40" as="geometry" />
        </mxCell>
        <mxCell id="F62fE3NJksiHlh27fMDJ-20" value="fk_cod_ca" style="ellipse;whiteSpace=wrap;html=1;align=center;" vertex="1" parent="1">
          <mxGeometry x="690" y="200" width="60" height="40" as="geometry" />
        </mxCell>
        <mxCell id="F62fE3NJksiHlh27fMDJ-22" value="CARR-MAT" style="text;html=1;align=center;verticalAlign=middle;resizable=0;points=[];autosize=1;strokeColor=none;fillColor=none;" vertex="1" parent="1">
          <mxGeometry x="737" y="80" width="90" height="30" as="geometry" />
        </mxCell>
        <mxCell id="F62fE3NJksiHlh27fMDJ-23" value="cod_ma" style="ellipse;whiteSpace=wrap;html=1;align=center;fontStyle=4;" vertex="1" parent="1">
          <mxGeometry x="960" y="40" width="100" height="40" as="geometry" />
        </mxCell>
        <mxCell id="F62fE3NJksiHlh27fMDJ-24" value="PROFE-MAT" style="text;html=1;align=center;verticalAlign=middle;resizable=0;points=[];autosize=1;strokeColor=none;fillColor=none;" vertex="1" parent="1">
          <mxGeometry x="1241" y="80" width="90" height="30" as="geometry" />
        </mxCell>
        <mxCell id="F62fE3NJksiHlh27fMDJ-25" value="fk_cod_ma" style="ellipse;whiteSpace=wrap;html=1;align=center;" vertex="1" parent="1">
          <mxGeometry x="1310" y="200" width="100" height="40" as="geometry" />
        </mxCell>
        <mxCell id="F62fE3NJksiHlh27fMDJ-26" value="fk_id_pro" style="ellipse;whiteSpace=wrap;html=1;align=center;" vertex="1" parent="1">
          <mxGeometry x="1160" y="200" width="100" height="40" as="geometry" />
        </mxCell>
        <mxCell id="F62fE3NJksiHlh27fMDJ-27" value="id_pro,cod_ma" style="ellipse;whiteSpace=wrap;html=1;align=center;fontStyle=4;" vertex="1" parent="1">
          <mxGeometry x="1240" y="40" width="100" height="40" as="geometry" />
        </mxCell>
        <mxCell id="F62fE3NJksiHlh27fMDJ-28" value="direccion" style="ellipse;shape=doubleEllipse;margin=3;whiteSpace=wrap;html=1;align=center;" vertex="1" parent="1">
          <mxGeometry x="1680" y="200" width="100" height="40" as="geometry" />
        </mxCell>
        <mxCell id="F62fE3NJksiHlh27fMDJ-30" value="id_pro" style="ellipse;whiteSpace=wrap;html=1;align=center;fontStyle=4;" vertex="1" parent="1">
          <mxGeometry x="1530" y="40" width="100" height="40" as="geometry" />
        </mxCell>
        <mxCell id="F62fE3NJksiHlh27fMDJ-31" value="telefono" style="ellipse;shape=doubleEllipse;margin=3;whiteSpace=wrap;html=1;align=center;" vertex="1" parent="1">
          <mxGeometry x="1800" y="200" width="100" height="40" as="geometry" />
        </mxCell>
        <mxCell id="F62fE3NJksiHlh27fMDJ-32" value="edad" style="ellipse;whiteSpace=wrap;html=1;align=center;dashed=1;" vertex="1" parent="1">
          <mxGeometry x="1554" y="200" width="100" height="40" as="geometry" />
        </mxCell>
        <mxCell id="F62fE3NJksiHlh27fMDJ-33" value="barrio" style="ellipse;whiteSpace=wrap;html=1;align=center;" vertex="1" parent="1">
          <mxGeometry x="1780" y="280" width="100" height="40" as="geometry" />
        </mxCell>
        <mxCell id="F62fE3NJksiHlh27fMDJ-34" value="calle" style="ellipse;whiteSpace=wrap;html=1;align=center;" vertex="1" parent="1">
          <mxGeometry x="1630" y="280" width="100" height="40" as="geometry" />
        </mxCell>
        <mxCell id="F62fE3NJksiHlh27fMDJ-35" value="nombres" style="ellipse;whiteSpace=wrap;html=1;align=center;" vertex="1" parent="1">
          <mxGeometry x="1670" y="40" width="100" height="40" as="geometry" />
        </mxCell>
        <mxCell id="F62fE3NJksiHlh27fMDJ-36" value="apellidos" style="ellipse;whiteSpace=wrap;html=1;align=center;" vertex="1" parent="1">
          <mxGeometry x="1810" y="40" width="100" height="40" as="geometry" />
        </mxCell>
        <mxCell id="F62fE3NJksiHlh27fMDJ-38" value="apellidos" style="ellipse;whiteSpace=wrap;html=1;align=center;" vertex="1" parent="1">
          <mxGeometry x="230" y="200" width="70" height="40" as="geometry" />
        </mxCell>
        <mxCell id="F62fE3NJksiHlh27fMDJ-39" value="" style="endArrow=none;html=1;rounded=0;entryX=0.5;entryY=1;entryDx=0;entryDy=0;exitX=0;exitY=0;exitDx=0;exitDy=0;" edge="1" parent="1" source="F62fE3NJksiHlh27fMDJ-1" target="F62fE3NJksiHlh27fMDJ-2">
          <mxGeometry relative="1" as="geometry">
            <mxPoint x="200" y="180" as="sourcePoint" />
            <mxPoint x="360" y="180" as="targetPoint" />
          </mxGeometry>
        </mxCell>
        <mxCell id="F62fE3NJksiHlh27fMDJ-41" value="" style="endArrow=none;html=1;rounded=0;entryX=0.5;entryY=1;entryDx=0;entryDy=0;" edge="1" parent="1" target="F62fE3NJksiHlh27fMDJ-3">
          <mxGeometry relative="1" as="geometry">
            <mxPoint x="80" y="120" as="sourcePoint" />
            <mxPoint x="360" y="180" as="targetPoint" />
          </mxGeometry>
        </mxCell>
        <mxCell id="F62fE3NJksiHlh27fMDJ-44" value="" style="endArrow=none;html=1;rounded=0;entryX=0.5;entryY=1;entryDx=0;entryDy=0;exitX=0.75;exitY=0;exitDx=0;exitDy=0;" edge="1" parent="1" source="F62fE3NJksiHlh27fMDJ-1" target="F62fE3NJksiHlh27fMDJ-13">
          <mxGeometry relative="1" as="geometry">
            <mxPoint x="200" y="180" as="sourcePoint" />
            <mxPoint x="360" y="180" as="targetPoint" />
          </mxGeometry>
        </mxCell>
        <mxCell id="F62fE3NJksiHlh27fMDJ-46" value="" style="endArrow=none;html=1;rounded=0;exitX=0.5;exitY=0;exitDx=0;exitDy=0;entryX=0;entryY=1;entryDx=0;entryDy=0;" edge="1" parent="1" source="F62fE3NJksiHlh27fMDJ-4" target="F62fE3NJksiHlh27fMDJ-1">
          <mxGeometry relative="1" as="geometry">
            <mxPoint x="200" y="180" as="sourcePoint" />
            <mxPoint x="360" y="180" as="targetPoint" />
          </mxGeometry>
        </mxCell>
        <mxCell id="F62fE3NJksiHlh27fMDJ-47" value="" style="endArrow=none;html=1;rounded=0;exitX=0.5;exitY=0;exitDx=0;exitDy=0;entryX=0.35;entryY=1.075;entryDx=0;entryDy=0;entryPerimeter=0;" edge="1" parent="1" source="F62fE3NJksiHlh27fMDJ-12" target="F62fE3NJksiHlh27fMDJ-1">
          <mxGeometry relative="1" as="geometry">
            <mxPoint x="200" y="180" as="sourcePoint" />
            <mxPoint x="360" y="180" as="targetPoint" />
          </mxGeometry>
        </mxCell>
        <mxCell id="F62fE3NJksiHlh27fMDJ-49" value="" style="endArrow=none;html=1;rounded=0;entryX=0.75;entryY=1;entryDx=0;entryDy=0;exitX=0.5;exitY=0;exitDx=0;exitDy=0;" edge="1" parent="1" source="F62fE3NJksiHlh27fMDJ-16" target="F62fE3NJksiHlh27fMDJ-1">
          <mxGeometry relative="1" as="geometry">
            <mxPoint x="200" y="180" as="sourcePoint" />
            <mxPoint x="360" y="180" as="targetPoint" />
          </mxGeometry>
        </mxCell>
        <mxCell id="F62fE3NJksiHlh27fMDJ-51" value="" style="endArrow=none;html=1;rounded=0;entryX=1;entryY=1;entryDx=0;entryDy=0;exitX=0.5;exitY=0;exitDx=0;exitDy=0;" edge="1" parent="1" source="F62fE3NJksiHlh27fMDJ-38" target="F62fE3NJksiHlh27fMDJ-1">
          <mxGeometry relative="1" as="geometry">
            <mxPoint x="200" y="180" as="sourcePoint" />
            <mxPoint x="360" y="180" as="targetPoint" />
          </mxGeometry>
        </mxCell>
        <mxCell id="F62fE3NJksiHlh27fMDJ-53" value="" style="endArrow=none;html=1;rounded=0;exitX=0.5;exitY=0;exitDx=0;exitDy=0;entryX=0;entryY=1;entryDx=0;entryDy=0;" edge="1" parent="1" source="F62fE3NJksiHlh27fMDJ-15" target="F62fE3NJksiHlh27fMDJ-12">
          <mxGeometry relative="1" as="geometry">
            <mxPoint x="200" y="180" as="sourcePoint" />
            <mxPoint x="360" y="180" as="targetPoint" />
          </mxGeometry>
        </mxCell>
        <mxCell id="F62fE3NJksiHlh27fMDJ-54" value="1" style="resizable=0;html=1;whiteSpace=wrap;align=right;verticalAlign=bottom;" connectable="0" vertex="1" parent="F62fE3NJksiHlh27fMDJ-53">
          <mxGeometry x="1" relative="1" as="geometry" />
        </mxCell>
        <mxCell id="F62fE3NJksiHlh27fMDJ-55" value="" style="endArrow=none;html=1;rounded=0;exitX=0.5;exitY=0;exitDx=0;exitDy=0;entryX=1;entryY=1;entryDx=0;entryDy=0;" edge="1" parent="1" source="F62fE3NJksiHlh27fMDJ-14" target="F62fE3NJksiHlh27fMDJ-12">
          <mxGeometry relative="1" as="geometry">
            <mxPoint x="200" y="180" as="sourcePoint" />
            <mxPoint x="360" y="180" as="targetPoint" />
          </mxGeometry>
        </mxCell>
        <mxCell id="F62fE3NJksiHlh27fMDJ-56" value="" style="endArrow=none;html=1;rounded=0;entryX=0;entryY=0.5;entryDx=0;entryDy=0;exitX=1;exitY=0.5;exitDx=0;exitDy=0;" edge="1" parent="1" source="F62fE3NJksiHlh27fMDJ-1" target="F62fE3NJksiHlh27fMDJ-6">
          <mxGeometry relative="1" as="geometry">
            <mxPoint x="200" y="180" as="sourcePoint" />
            <mxPoint x="360" y="180" as="targetPoint" />
          </mxGeometry>
        </mxCell>
        <mxCell id="F62fE3NJksiHlh27fMDJ-57" value="1" style="resizable=0;html=1;whiteSpace=wrap;align=left;verticalAlign=bottom;" connectable="0" vertex="1" parent="F62fE3NJksiHlh27fMDJ-56">
          <mxGeometry x="-1" relative="1" as="geometry" />
        </mxCell>
        <mxCell id="F62fE3NJksiHlh27fMDJ-58" value="1" style="resizable=0;html=1;whiteSpace=wrap;align=right;verticalAlign=bottom;" connectable="0" vertex="1" parent="F62fE3NJksiHlh27fMDJ-56">
          <mxGeometry x="1" relative="1" as="geometry" />
        </mxCell>
        <mxCell id="F62fE3NJksiHlh27fMDJ-5" value="estudia" style="shape=rhombus;perimeter=rhombusPerimeter;whiteSpace=wrap;html=1;align=center;" vertex="1" parent="1">
          <mxGeometry x="280" y="110" width="120" height="60" as="geometry" />
        </mxCell>
      </root>
    </mxGraphModel>
  </diagram>
</mxfile>
